<?xml version="1.0" encoding="UTF-8" standalone="no"?>
<!-- Created with Inkscape (http://www.inkscape.org/) -->

<svg
   xmlns:dc="http://purl.org/dc/elements/1.1/"
   xmlns:cc="http://creativecommons.org/ns#"
   xmlns:rdf="http://www.w3.org/1999/02/22-rdf-syntax-ns#"
   xmlns:svg="http://www.w3.org/2000/svg"
   xmlns="http://www.w3.org/2000/svg"
   xmlns:sodipodi="http://sodipodi.sourceforge.net/DTD/sodipodi-0.dtd"
   xmlns:inkscape="http://www.inkscape.org/namespaces/inkscape"
   width="832.87817"
   height="642.25488"
   id="svg2"
   version="1.1"
   inkscape:version="0.48.4 r9939"
   sodipodi:docname="piecewise_Z.svg">
  <defs
     id="defs4">
    <marker
       inkscape:stockid="DiamondM"
       orient="auto"
       refY="0"
       refX="0"
       id="DiamondM"
       style="overflow:visible">
      <path
         id="path4465"
         d="M 0,-7.0710768 -7.0710894,0 0,7.0710589 7.0710462,0 0,-7.0710768 z"
         style="fill-rule:evenodd;stroke:#000000;stroke-width:1pt"
         transform="scale(0.4,0.4)"
         inkscape:connector-curvature="0" />
    </marker>
    <marker
       inkscape:stockid="EmptyDiamondMend"
       orient="auto"
       refY="0"
       refX="0"
       id="EmptyDiamondMend"
       style="overflow:visible">
      <path
         id="path4510"
         d="M 0,-7.0710768 -7.0710894,0 0,7.0710589 7.0710462,0 0,-7.0710768 z"
         style="fill:#ffffff;fill-rule:evenodd;stroke:#000000;stroke-width:1pt"
         transform="matrix(0.4,0,0,0.4,-2.6,0)"
         inkscape:connector-curvature="0" />
    </marker>
    <marker
       inkscape:stockid="DotM"
       orient="auto"
       refY="0"
       refX="0"
       id="DotM"
       style="overflow:visible">
      <path
         id="path4447"
         d="m -2.5,-1 c 0,2.76 -2.24,5 -5,5 -2.76,0 -5,-2.24 -5,-5 0,-2.76 2.24,-5 5,-5 2.76,0 5,2.24 5,5 z"
         style="fill-rule:evenodd;stroke:#000000;stroke-width:1pt"
         transform="matrix(0.4,0,0,0.4,2.96,0.4)"
         inkscape:connector-curvature="0" />
    </marker>
    <marker
       inkscape:stockid="DotL"
       orient="auto"
       refY="0"
       refX="0"
       id="DotL"
       style="overflow:visible">
      <path
         id="path4444"
         d="m -2.5,-1 c 0,2.76 -2.24,5 -5,5 -2.76,0 -5,-2.24 -5,-5 0,-2.76 2.24,-5 5,-5 2.76,0 5,2.24 5,5 z"
         style="fill-rule:evenodd;stroke:#000000;stroke-width:1pt"
         transform="matrix(0.8,0,0,0.8,5.92,0.8)"
         inkscape:connector-curvature="0" />
    </marker>
    <marker
       inkscape:stockid="DiamondM"
       orient="auto"
       refY="0"
       refX="0"
       id="DiamondM-9"
       style="overflow:visible">
      <path
         inkscape:connector-curvature="0"
         id="path4465-4"
         d="M 0,-7.0710768 -7.0710894,0 0,7.0710589 7.0710462,0 0,-7.0710768 z"
         style="fill-rule:evenodd;stroke:#000000;stroke-width:1pt"
         transform="scale(0.4,0.4)" />
    </marker>
    <marker
       inkscape:stockid="EmptyDiamondMend"
       orient="auto"
       refY="0"
       refX="0"
       id="EmptyDiamondMend-4"
       style="overflow:visible">
      <path
         inkscape:connector-curvature="0"
         id="path4510-6"
         d="M 0,-7.0710768 -7.0710894,0 0,7.0710589 7.0710462,0 0,-7.0710768 z"
         style="fill:#ffffff;fill-rule:evenodd;stroke:#000000;stroke-width:1pt"
         transform="matrix(0.4,0,0,0.4,-2.6,0)" />
    </marker>
    <marker
       inkscape:stockid="DiamondM"
       orient="auto"
       refY="0"
       refX="0"
       id="DiamondM-7"
       style="overflow:visible">
      <path
         inkscape:connector-curvature="0"
         id="path4465-2"
         d="M 0,-7.0710768 -7.0710894,0 0,7.0710589 7.0710462,0 0,-7.0710768 z"
         style="fill-rule:evenodd;stroke:#000000;stroke-width:1pt"
         transform="scale(0.4,0.4)" />
    </marker>
    <marker
       inkscape:stockid="EmptyDiamondMend"
       orient="auto"
       refY="0"
       refX="0"
       id="EmptyDiamondMend-6"
       style="overflow:visible">
      <path
         inkscape:connector-curvature="0"
         id="path4510-66"
         d="M 0,-7.0710768 -7.0710894,0 0,7.0710589 7.0710462,0 0,-7.0710768 z"
         style="fill:#ffffff;fill-rule:evenodd;stroke:#000000;stroke-width:1pt"
         transform="matrix(0.4,0,0,0.4,-2.6,0)" />
    </marker>
    <marker
       inkscape:stockid="DiamondM"
       orient="auto"
       refY="0"
       refX="0"
       id="DiamondM-1"
       style="overflow:visible">
      <path
         inkscape:connector-curvature="0"
         id="path4465-48"
         d="M 0,-7.0710768 -7.0710894,0 0,7.0710589 7.0710462,0 0,-7.0710768 z"
         style="fill-rule:evenodd;stroke:#000000;stroke-width:1pt"
         transform="scale(0.4,0.4)" />
    </marker>
    <marker
       inkscape:stockid="EmptyDiamondMend"
       orient="auto"
       refY="0"
       refX="0"
       id="EmptyDiamondMend-9"
       style="overflow:visible">
      <path
         inkscape:connector-curvature="0"
         id="path4510-61"
         d="M 0,-7.0710768 -7.0710894,0 0,7.0710589 7.0710462,0 0,-7.0710768 z"
         style="fill:#ffffff;fill-rule:evenodd;stroke:#000000;stroke-width:1pt"
         transform="matrix(0.4,0,0,0.4,-2.6,0)" />
    </marker>
    <marker
       inkscape:stockid="DiamondM"
       orient="auto"
       refY="0"
       refX="0"
       id="DiamondM-5"
       style="overflow:visible">
      <path
         inkscape:connector-curvature="0"
         id="path4465-47"
         d="M 0,-7.0710768 -7.0710894,0 0,7.0710589 7.0710462,0 0,-7.0710768 z"
         style="fill-rule:evenodd;stroke:#000000;stroke-width:1pt"
         transform="scale(0.4,0.4)" />
    </marker>
    <marker
       inkscape:stockid="EmptyDiamondMend"
       orient="auto"
       refY="0"
       refX="0"
       id="EmptyDiamondMend-7"
       style="overflow:visible">
      <path
         inkscape:connector-curvature="0"
         id="path4510-5"
         d="M 0,-7.0710768 -7.0710894,0 0,7.0710589 7.0710462,0 0,-7.0710768 z"
         style="fill:#ffffff;fill-rule:evenodd;stroke:#000000;stroke-width:1pt"
         transform="matrix(0.4,0,0,0.4,-2.6,0)" />
    </marker>
    <marker
       inkscape:stockid="DiamondM"
       orient="auto"
       refY="0"
       refX="0"
       id="DiamondM-8"
       style="overflow:visible">
      <path
         inkscape:connector-curvature="0"
         id="path4465-1"
         d="M 0,-7.0710768 -7.0710894,0 0,7.0710589 7.0710462,0 0,-7.0710768 z"
         style="fill-rule:evenodd;stroke:#000000;stroke-width:1pt"
         transform="scale(0.4,0.4)" />
    </marker>
    <marker
       inkscape:stockid="EmptyDiamondMend"
       orient="auto"
       refY="0"
       refX="0"
       id="EmptyDiamondMend-1"
       style="overflow:visible">
      <path
         inkscape:connector-curvature="0"
         id="path4510-3"
         d="M 0,-7.0710768 -7.0710894,0 0,7.0710589 7.0710462,0 0,-7.0710768 z"
         style="fill:#ffffff;fill-rule:evenodd;stroke:#000000;stroke-width:1pt"
         transform="matrix(0.4,0,0,0.4,-2.6,0)" />
    </marker>
    <marker
       inkscape:stockid="DiamondM"
       orient="auto"
       refY="0"
       refX="0"
       id="DiamondM-80"
       style="overflow:visible">
      <path
         inkscape:connector-curvature="0"
         id="path4465-0"
         d="M 0,-7.0710768 -7.0710894,0 0,7.0710589 7.0710462,0 0,-7.0710768 z"
         style="fill-rule:evenodd;stroke:#000000;stroke-width:1pt"
         transform="scale(0.4,0.4)" />
    </marker>
    <marker
       inkscape:stockid="EmptyDiamondMend"
       orient="auto"
       refY="0"
       refX="0"
       id="EmptyDiamondMend-67"
       style="overflow:visible">
      <path
         inkscape:connector-curvature="0"
         id="path4510-8"
         d="M 0,-7.0710768 -7.0710894,0 0,7.0710589 7.0710462,0 0,-7.0710768 z"
         style="fill:#ffffff;fill-rule:evenodd;stroke:#000000;stroke-width:1pt"
         transform="matrix(0.4,0,0,0.4,-2.6,0)" />
    </marker>
    <marker
       inkscape:stockid="DiamondM"
       orient="auto"
       refY="0"
       refX="0"
       id="DiamondM-4"
       style="overflow:visible">
      <path
         inkscape:connector-curvature="0"
         id="path4465-3"
         d="M 0,-7.0710768 -7.0710894,0 0,7.0710589 7.0710462,0 0,-7.0710768 z"
         style="fill-rule:evenodd;stroke:#000000;stroke-width:1pt"
         transform="scale(0.4,0.4)" />
    </marker>
    <marker
       inkscape:stockid="EmptyDiamondMend"
       orient="auto"
       refY="0"
       refX="0"
       id="EmptyDiamondMend-2"
       style="overflow:visible">
      <path
         inkscape:connector-curvature="0"
         id="path4510-4"
         d="M 0,-7.0710768 -7.0710894,0 0,7.0710589 7.0710462,0 0,-7.0710768 z"
         style="fill:#ffffff;fill-rule:evenodd;stroke:#000000;stroke-width:1pt"
         transform="matrix(0.4,0,0,0.4,-2.6,0)" />
    </marker>
    <marker
       inkscape:stockid="DiamondM"
       orient="auto"
       refY="0"
       refX="0"
       id="DiamondM-47"
       style="overflow:visible">
      <path
         inkscape:connector-curvature="0"
         id="path4465-33"
         d="M 0,-7.0710768 -7.0710894,0 0,7.0710589 7.0710462,0 0,-7.0710768 z"
         style="fill-rule:evenodd;stroke:#000000;stroke-width:1pt"
         transform="scale(0.4,0.4)" />
    </marker>
    <marker
       inkscape:stockid="EmptyDiamondMend"
       orient="auto"
       refY="0"
       refX="0"
       id="EmptyDiamondMend-8"
       style="overflow:visible">
      <path
         inkscape:connector-curvature="0"
         id="path4510-83"
         d="M 0,-7.0710768 -7.0710894,0 0,7.0710589 7.0710462,0 0,-7.0710768 z"
         style="fill:#ffffff;fill-rule:evenodd;stroke:#000000;stroke-width:1pt"
         transform="matrix(0.4,0,0,0.4,-2.6,0)" />
    </marker>
    <marker
       inkscape:stockid="DiamondM"
       orient="auto"
       refY="0"
       refX="0"
       id="DiamondM-57"
       style="overflow:visible">
      <path
         inkscape:connector-curvature="0"
         id="path4465-5"
         d="M 0,-7.0710768 -7.0710894,0 0,7.0710589 7.0710462,0 0,-7.0710768 z"
         style="fill-rule:evenodd;stroke:#000000;stroke-width:1pt"
         transform="scale(0.4,0.4)" />
    </marker>
    <marker
       inkscape:stockid="EmptyDiamondMend"
       orient="auto"
       refY="0"
       refX="0"
       id="EmptyDiamondMend-45"
       style="overflow:visible">
      <path
         inkscape:connector-curvature="0"
         id="path4510-7"
         d="M 0,-7.0710768 -7.0710894,0 0,7.0710589 7.0710462,0 0,-7.0710768 z"
         style="fill:#ffffff;fill-rule:evenodd;stroke:#000000;stroke-width:1pt"
         transform="matrix(0.4,0,0,0.4,-2.6,0)" />
    </marker>
    <marker
       inkscape:stockid="DiamondM"
       orient="auto"
       refY="0"
       refX="0"
       id="DiamondM-6"
       style="overflow:visible">
      <path
         inkscape:connector-curvature="0"
         id="path4465-03"
         d="M 0,-7.0710768 -7.0710894,0 0,7.0710589 7.0710462,0 0,-7.0710768 z"
         style="fill-rule:evenodd;stroke:#000000;stroke-width:1pt"
         transform="scale(0.4,0.4)" />
    </marker>
    <marker
       inkscape:stockid="EmptyDiamondMend"
       orient="auto"
       refY="0"
       refX="0"
       id="EmptyDiamondMend-64"
       style="overflow:visible">
      <path
         inkscape:connector-curvature="0"
         id="path4510-44"
         d="M 0,-7.0710768 -7.0710894,0 0,7.0710589 7.0710462,0 0,-7.0710768 z"
         style="fill:#ffffff;fill-rule:evenodd;stroke:#000000;stroke-width:1pt"
         transform="matrix(0.4,0,0,0.4,-2.6,0)" />
    </marker>
    <marker
       inkscape:stockid="DiamondM"
       orient="auto"
       refY="0"
       refX="0"
       id="DiamondM-2"
       style="overflow:visible">
      <path
         inkscape:connector-curvature="0"
         id="path4465-44"
         d="M 0,-7.0710768 -7.0710894,0 0,7.0710589 7.0710462,0 0,-7.0710768 z"
         style="fill-rule:evenodd;stroke:#000000;stroke-width:1pt"
         transform="scale(0.4,0.4)" />
    </marker>
    <marker
       inkscape:stockid="EmptyDiamondMend"
       orient="auto"
       refY="0"
       refX="0"
       id="EmptyDiamondMend-91"
       style="overflow:visible">
      <path
         inkscape:connector-curvature="0"
         id="path4510-55"
         d="M 0,-7.0710768 -7.0710894,0 0,7.0710589 7.0710462,0 0,-7.0710768 z"
         style="fill:#ffffff;fill-rule:evenodd;stroke:#000000;stroke-width:1pt"
         transform="matrix(0.4,0,0,0.4,-2.6,0)" />
    </marker>
    <marker
       inkscape:stockid="DiamondM"
       orient="auto"
       refY="0"
       refX="0"
       id="DiamondM-16"
       style="overflow:visible">
      <path
         inkscape:connector-curvature="0"
         id="path4465-53"
         d="M 0,-7.0710768 -7.0710894,0 0,7.0710589 7.0710462,0 0,-7.0710768 z"
         style="fill-rule:evenodd;stroke:#000000;stroke-width:1pt"
         transform="scale(0.4,0.4)" />
    </marker>
    <marker
       inkscape:stockid="EmptyDiamondMend"
       orient="auto"
       refY="0"
       refX="0"
       id="EmptyDiamondMend-84"
       style="overflow:visible">
      <path
         inkscape:connector-curvature="0"
         id="path4510-85"
         d="M 0,-7.0710768 -7.0710894,0 0,7.0710589 7.0710462,0 0,-7.0710768 z"
         style="fill:#ffffff;fill-rule:evenodd;stroke:#000000;stroke-width:1pt"
         transform="matrix(0.4,0,0,0.4,-2.6,0)" />
    </marker>
    <marker
       inkscape:stockid="DiamondM"
       orient="auto"
       refY="0"
       refX="0"
       id="DiamondM-49"
       style="overflow:visible">
      <path
         inkscape:connector-curvature="0"
         id="path4465-9"
         d="M 0,-7.0710768 -7.0710894,0 0,7.0710589 7.0710462,0 0,-7.0710768 z"
         style="fill-rule:evenodd;stroke:#000000;stroke-width:1pt"
         transform="scale(0.4,0.4)" />
    </marker>
    <marker
       inkscape:stockid="EmptyDiamondMend"
       orient="auto"
       refY="0"
       refX="0"
       id="EmptyDiamondMend-86"
       style="overflow:visible">
      <path
         inkscape:connector-curvature="0"
         id="path4510-9"
         d="M 0,-7.0710768 -7.0710894,0 0,7.0710589 7.0710462,0 0,-7.0710768 z"
         style="fill:#ffffff;fill-rule:evenodd;stroke:#000000;stroke-width:1pt"
         transform="matrix(0.4,0,0,0.4,-2.6,0)" />
    </marker>
    <marker
       inkscape:stockid="DiamondM"
       orient="auto"
       refY="0"
       refX="0"
       id="DiamondM-22"
       style="overflow:visible">
      <path
         inkscape:connector-curvature="0"
         id="path4465-6"
         d="M 0,-7.0710768 -7.0710894,0 0,7.0710589 7.0710462,0 0,-7.0710768 z"
         style="fill-rule:evenodd;stroke:#000000;stroke-width:1pt"
         transform="scale(0.4,0.4)" />
    </marker>
    <marker
       inkscape:stockid="EmptyDiamondMend"
       orient="auto"
       refY="0"
       refX="0"
       id="EmptyDiamondMend-11"
       style="overflow:visible">
      <path
         inkscape:connector-curvature="0"
         id="path4510-78"
         d="M 0,-7.0710768 -7.0710894,0 0,7.0710589 7.0710462,0 0,-7.0710768 z"
         style="fill:#ffffff;fill-rule:evenodd;stroke:#000000;stroke-width:1pt"
         transform="matrix(0.4,0,0,0.4,-2.6,0)" />
    </marker>
    <marker
       inkscape:stockid="DiamondM"
       orient="auto"
       refY="0"
       refX="0"
       id="DiamondM-27"
       style="overflow:visible">
      <path
         inkscape:connector-curvature="0"
         id="path4465-64"
         d="M 0,-7.0710768 -7.0710894,0 0,7.0710589 7.0710462,0 0,-7.0710768 z"
         style="fill-rule:evenodd;stroke:#000000;stroke-width:1pt"
         transform="scale(0.4,0.4)" />
    </marker>
    <marker
       inkscape:stockid="EmptyDiamondMend"
       orient="auto"
       refY="0"
       refX="0"
       id="EmptyDiamondMend-88"
       style="overflow:visible">
      <path
         inkscape:connector-curvature="0"
         id="path4510-74"
         d="M 0,-7.0710768 -7.0710894,0 0,7.0710589 7.0710462,0 0,-7.0710768 z"
         style="fill:#ffffff;fill-rule:evenodd;stroke:#000000;stroke-width:1pt"
         transform="matrix(0.4,0,0,0.4,-2.6,0)" />
    </marker>
    <marker
       inkscape:stockid="DiamondM"
       orient="auto"
       refY="0"
       refX="0"
       id="DiamondM-162"
       style="overflow:visible">
      <path
         inkscape:connector-curvature="0"
         id="path4465-38"
         d="M 0,-7.0710768 -7.0710894,0 0,7.0710589 7.0710462,0 0,-7.0710768 z"
         style="fill-rule:evenodd;stroke:#000000;stroke-width:1pt"
         transform="scale(0.4,0.4)" />
    </marker>
    <marker
       inkscape:stockid="EmptyDiamondMend"
       orient="auto"
       refY="0"
       refX="0"
       id="EmptyDiamondMend-0"
       style="overflow:visible">
      <path
         inkscape:connector-curvature="0"
         id="path4510-0"
         d="M 0,-7.0710768 -7.0710894,0 0,7.0710589 7.0710462,0 0,-7.0710768 z"
         style="fill:#ffffff;fill-rule:evenodd;stroke:#000000;stroke-width:1pt"
         transform="matrix(0.4,0,0,0.4,-2.6,0)" />
    </marker>
    <marker
       inkscape:stockid="DiamondM"
       orient="auto"
       refY="0"
       refX="0"
       id="DiamondM-15"
       style="overflow:visible">
      <path
         inkscape:connector-curvature="0"
         id="path4465-96"
         d="M 0,-7.0710768 -7.0710894,0 0,7.0710589 7.0710462,0 0,-7.0710768 z"
         style="fill-rule:evenodd;stroke:#000000;stroke-width:1pt"
         transform="scale(0.4,0.4)" />
    </marker>
    <marker
       inkscape:stockid="EmptyDiamondMend"
       orient="auto"
       refY="0"
       refX="0"
       id="EmptyDiamondMend-3"
       style="overflow:visible">
      <path
         inkscape:connector-curvature="0"
         id="path4510-35"
         d="M 0,-7.0710768 -7.0710894,0 0,7.0710589 7.0710462,0 0,-7.0710768 z"
         style="fill:#ffffff;fill-rule:evenodd;stroke:#000000;stroke-width:1pt"
         transform="matrix(0.4,0,0,0.4,-2.6,0)" />
    </marker>
    <marker
       inkscape:stockid="DiamondM"
       orient="auto"
       refY="0"
       refX="0"
       id="DiamondM-0"
       style="overflow:visible">
      <path
         inkscape:connector-curvature="0"
         id="path4465-68"
         d="M 0,-7.0710768 -7.0710894,0 0,7.0710589 7.0710462,0 0,-7.0710768 z"
         style="fill-rule:evenodd;stroke:#000000;stroke-width:1pt"
         transform="scale(0.4,0.4)" />
    </marker>
    <marker
       inkscape:stockid="EmptyDiamondMend"
       orient="auto"
       refY="0"
       refX="0"
       id="EmptyDiamondMend-26"
       style="overflow:visible">
      <path
         inkscape:connector-curvature="0"
         id="path4510-2"
         d="M 0,-7.0710768 -7.0710894,0 0,7.0710589 7.0710462,0 0,-7.0710768 z"
         style="fill:#ffffff;fill-rule:evenodd;stroke:#000000;stroke-width:1pt"
         transform="matrix(0.4,0,0,0.4,-2.6,0)" />
    </marker>
  </defs>
  <sodipodi:namedview
     id="base"
     pagecolor="#ffffff"
     bordercolor="#666666"
     borderopacity="1.0"
     inkscape:pageopacity="0.0"
     inkscape:pageshadow="2"
     inkscape:zoom="1.2055766"
     inkscape:cx="416.50235"
     inkscape:cy="321.19088"
     inkscape:document-units="px"
     inkscape:current-layer="layer1"
     showgrid="false"
     showguides="false"
     inkscape:snap-global="true"
     inkscape:window-width="1508"
     inkscape:window-height="986"
     inkscape:window-x="3208"
     inkscape:window-y="94"
     inkscape:window-maximized="0"
     units="in"
     fit-margin-top="0.25"
     fit-margin-right="0.25"
     fit-margin-bottom="0.25"
     fit-margin-left="0.25"
     showborder="true">
    <inkscape:grid
       type="xygrid"
       id="grid2985"
       empspacing="5"
       visible="true"
       enabled="true"
       snapvisiblegridlinesonly="true"
       originx="66.283699px"
       originy="69.755065px" />
  </sodipodi:namedview>
  <metadata
     id="metadata7">
    <rdf:RDF>
      <cc:Work
         rdf:about="">
        <dc:format>image/svg+xml</dc:format>
        <dc:type
           rdf:resource="http://purl.org/dc/dcmitype/StillImage" />
        <dc:title></dc:title>
      </cc:Work>
    </rdf:RDF>
  </metadata>
  <g
     inkscape:label="Layer 1"
     inkscape:groupmode="layer"
     id="layer1"
     transform="translate(66.283699,-479.86218)">
    <g
       id="g6571">
      <path
         inkscape:connector-curvature="0"
         id="path2993"
         style="fill:none;stroke:#000000;stroke-width:0.25302693;stroke-linecap:butt;stroke-linejoin:miter;stroke-miterlimit:4;stroke-opacity:1;stroke-dasharray:none"
         d="M 0,1052.3622 0,502.36218 m 20,550.00002 0,-550.00002 m 20,550.00002 0,-550.00002 m 20,550.00002 0,-550.00002 m 20,550.00002 0,-550.00002 m 20,550.00002 0,-550.00002 m 20,550.00002 0,-550.00002 m 20,550.00002 0,-550.00002 m 20,550.00002 0,-550.00002 m 20,550.00002 0,-550.00002 m 20,550.00002 0,-550.00002 m 20,550.00002 0,-550.00002 m 20,550.00002 0,-550.00002 m 20,550.00002 0,-550.00002 m 20,550.00002 0,-550.00002 m 20,550.00002 0,-550.00002 m 20,550.00002 0,-550.00002 m 20,550.00002 0,-550.00002 m 20,550.00002 0,-550.00002 m 20,550.00002 0,-550.00002 m 20,550.00002 0,-550.00002 m 20,550.00002 0,-550.00002 m 20,550.00002 0,-550.00002 m 20,550.00002 0,-550.00002 m 20,550.00002 0,-550.00002 m 20,550.00002 0,-550.00002 m 20,550.00002 0,-550.00002 m 20,550.00002 0,-550.00002 m 20,550.00002 0,-550.00002 m 20,550.00002 0,-550.00002 m 20,550.00002 0,-550.00002 m 20,550.00002 0,-550.00002 m 20,550.00002 0,-550.00002 m 20,550.00002 0,-550.00002 m 20,550.00002 0,-550.00002 m 20,550.00002 0,-550.00002 m 20,550.00002 0,-550.00002 m 20,550.00002 0,-550.00002 M 0,1052.3622 l 744.09448,0 M 0,1041.9095 l 744.09448,0 M 0,1031.4568 l 744.09448,0 M 0,1021.0042 l 744.09448,0 M 0,1010.5515 l 744.09448,0 M 0,1000.0988 l 744.09448,0 M 0,989.64615 l 744.09448,0 M 0,979.19347 l 744.09448,0 M 0,968.7408 l 744.09448,0 M 0,958.28812 l 744.09448,0 M 0,947.83545 l 744.09448,0 M 0,937.38277 l 744.09448,0 M 0,926.9301 l 744.09448,0 M 0,916.47742 l 744.09448,0 M 0,906.02475 l 744.09448,0 M 0,895.57207 l 744.09448,0 M 0,885.1194 l 744.09448,0 M 0,874.66672 l 744.09448,0 M 0,864.21405 l 744.09448,0 M 0,853.76137 l 744.09448,0 M 0,843.30869 l 744.09448,0 M 0,832.85602 l 744.09448,0 M 0,822.40334 l 744.09448,0 M 0,811.95067 l 744.09448,0 M 0,801.49799 l 744.09448,0 M 0,791.04532 l 744.09448,0 M 0,780.59264 l 744.09448,0 M 0,770.13997 l 744.09448,0 M 0,759.68729 l 744.09448,0 M 0,749.23462 l 744.09448,0 M 0,738.78194 l 744.09448,0 M 0,728.32927 l 744.09448,0 M 0,717.87659 l 744.09448,0 M 0,707.42392 l 744.09448,0 M 0,696.97124 l 744.09448,0 M 0,686.51857 l 744.09448,0 M 0,676.06589 l 744.09448,0 M 0,665.61321 l 744.09448,0 M 0,655.16054 l 744.09448,0 M 0,644.70786 l 744.09448,0 M 0,634.25519 l 744.09448,0 M 0,623.80251 l 744.09448,0 M 0,613.34984 l 744.09448,0 M 0,602.89716 l 744.09448,0 M 0,592.44449 l 744.09448,0 M 0,581.99181 l 744.09448,0 M 0,571.53914 l 744.09448,0 M 0,561.08646 l 744.09448,0 M 0,550.63379 l 744.09448,0 M 0,540.18111 l 744.09448,0 M 0,529.72844 l 744.09448,0 M 0,519.27576 l 744.09448,0 M 0,508.82309 l 744.09448,0" />
      <g
         transform="matrix(1,0,0,-1,-1.0606602,1744.7348)"
         id="g3828">
        <path
           transform="matrix(1,0,0,-1,1.0606602,1744.7348)"
           inkscape:connector-curvature="0"
           inkscape:connector-type="polyline"
           id="path4195"
           d="m 0,902.36218 45,0"
           style="fill:none;stroke:#000000;stroke-width:1px;stroke-linecap:butt;stroke-linejoin:miter;stroke-opacity:1;marker-start:url(#DiamondM);marker-mid:none;marker-end:url(#EmptyDiamondMend)" />
        <path
           sodipodi:nodetypes="cc"
           inkscape:connector-curvature="0"
           inkscape:connector-type="polyline"
           id="path4195-1"
           d="m 44.06066,802.37262 45,0"
           style="fill:none;stroke:#000000;stroke-width:1px;stroke-linecap:butt;stroke-linejoin:miter;stroke-opacity:1;marker-start:url(#DiamondM);marker-mid:none;marker-end:url(#EmptyDiamondMend)" />
        <path
           sodipodi:nodetypes="cc"
           inkscape:connector-curvature="0"
           inkscape:connector-type="polyline"
           id="path4195-2"
           d="m 86.06066,908.3726 45,0"
           style="fill:none;stroke:#000000;stroke-width:1px;stroke-linecap:butt;stroke-linejoin:miter;stroke-opacity:1;marker-start:url(#DiamondM);marker-mid:none;marker-end:url(#EmptyDiamondMend)" />
        <path
           sodipodi:nodetypes="cc"
           inkscape:connector-curvature="0"
           inkscape:connector-type="polyline"
           id="path4195-9"
           d="m 166.06066,937.37262 45,0"
           style="fill:none;stroke:#000000;stroke-width:1px;stroke-linecap:butt;stroke-linejoin:miter;stroke-opacity:1;marker-start:url(#DiamondM);marker-mid:none;marker-end:url(#EmptyDiamondMend)" />
        <path
           sodipodi:nodetypes="cc"
           inkscape:connector-curvature="0"
           inkscape:connector-type="polyline"
           id="path4195-9-9"
           d="m 209.06066,922.37262 15,0"
           style="fill:none;stroke:#000000;stroke-width:1px;stroke-linecap:butt;stroke-linejoin:miter;stroke-opacity:1;marker-start:url(#DiamondM);marker-mid:none;marker-end:url(#EmptyDiamondMend)" />
        <path
           sodipodi:nodetypes="cc"
           inkscape:connector-curvature="0"
           inkscape:connector-type="polyline"
           id="path4195-9-0"
           d="m 136.06066,842.37262 15,0"
           style="fill:none;stroke:#000000;stroke-width:1px;stroke-linecap:butt;stroke-linejoin:miter;stroke-opacity:1;marker-start:url(#DiamondM);marker-mid:none;marker-end:url(#EmptyDiamondMend)" />
        <path
           sodipodi:nodetypes="cc"
           inkscape:connector-curvature="0"
           inkscape:connector-type="polyline"
           id="path4195-9-94"
           d="m 222.06066,764.37262 15,0"
           style="fill:none;stroke:#000000;stroke-width:1px;stroke-linecap:butt;stroke-linejoin:miter;stroke-opacity:1;marker-start:url(#DiamondM);marker-mid:none;marker-end:url(#EmptyDiamondMend)" />
        <path
           sodipodi:nodetypes="cc"
           inkscape:connector-curvature="0"
           inkscape:connector-type="polyline"
           id="path4195-9-3"
           d="m 154.06066,955.37262 15,0"
           style="fill:none;stroke:#000000;stroke-width:1px;stroke-linecap:butt;stroke-linejoin:miter;stroke-opacity:1;marker-start:url(#DiamondM);marker-mid:none;marker-end:url(#EmptyDiamondMend)" />
        <path
           sodipodi:nodetypes="cc"
           inkscape:connector-curvature="0"
           inkscape:connector-type="polyline"
           id="path4195-9-1"
           d="m 298.06066,939.37262 15,0"
           style="fill:none;stroke:#000000;stroke-width:1px;stroke-linecap:butt;stroke-linejoin:miter;stroke-opacity:1;marker-start:url(#DiamondM);marker-mid:none;marker-end:url(#EmptyDiamondMend)" />
        <path
           sodipodi:nodetypes="cc"
           inkscape:connector-curvature="0"
           inkscape:connector-type="polyline"
           id="path4195-9-1-0"
           d="m 233.06066,874.37262 68,0"
           style="fill:none;stroke:#000000;stroke-width:1px;stroke-linecap:butt;stroke-linejoin:miter;stroke-opacity:1;marker-start:url(#DiamondM);marker-mid:none;marker-end:url(#EmptyDiamondMend)" />
      </g>
      <path
         inkscape:transform-center-y="-5.9999862"
         inkscape:transform-center-x="68.789218"
         sodipodi:nodetypes="cc"
         inkscape:connector-curvature="0"
         inkscape:connector-type="polyline"
         id="path4195-2-5"
         d="m 345,870.3622 95,-2e-5"
         style="fill:none;stroke:#000000;stroke-width:1px;stroke-linecap:butt;stroke-linejoin:miter;stroke-opacity:1;marker-start:url(#DiamondM);marker-mid:none;marker-end:url(#EmptyDiamondMend)" />
      <path
         sodipodi:nodetypes="cc"
         inkscape:connector-curvature="0"
         inkscape:connector-type="polyline"
         id="path4195-2-8"
         d="m 315,921.36218 45,0"
         style="fill:none;stroke:#000000;stroke-width:1px;stroke-linecap:butt;stroke-linejoin:miter;stroke-opacity:1;marker-start:url(#DiamondM);marker-mid:none;marker-end:url(#EmptyDiamondMend)" />
      <path
         sodipodi:nodetypes="cc"
         inkscape:connector-curvature="0"
         inkscape:connector-type="polyline"
         id="path4195-2-1"
         d="m 85,836.3622 45,0"
         style="fill:none;stroke:#000000;stroke-width:1px;stroke-linecap:butt;stroke-linejoin:miter;stroke-opacity:1;marker-start:url(#DiamondM);marker-mid:none;marker-end:url(#EmptyDiamondMend)" />
      <path
         inkscape:transform-center-y="-171"
         inkscape:transform-center-x="393.78922"
         sodipodi:nodetypes="cc"
         inkscape:connector-curvature="0"
         inkscape:connector-type="polyline"
         id="path4195-2-8-4"
         d="m 440,702.36218 45,0"
         style="fill:none;stroke:#000000;stroke-width:1px;stroke-linecap:butt;stroke-linejoin:miter;stroke-opacity:1;marker-start:url(#DiamondM);marker-mid:none;marker-end:url(#EmptyDiamondMend)" />
      <path
         sodipodi:nodetypes="cc"
         inkscape:connector-curvature="0"
         inkscape:connector-type="polyline"
         id="path4195-2-8-7"
         d="m 485,872.36218 45,0"
         style="fill:none;stroke:#000000;stroke-width:1px;stroke-linecap:butt;stroke-linejoin:miter;stroke-opacity:1;marker-start:url(#DiamondM);marker-mid:none;marker-end:url(#EmptyDiamondMend)" />
      <path
         sodipodi:nodetypes="cc"
         inkscape:connector-curvature="0"
         inkscape:connector-type="polyline"
         id="path4195-2-8-2"
         d="m 525,742.36218 45,0"
         style="fill:none;stroke:#000000;stroke-width:1px;stroke-linecap:butt;stroke-linejoin:miter;stroke-opacity:1;marker-start:url(#DiamondM);marker-mid:none;marker-end:url(#EmptyDiamondMend)" />
      <path
         sodipodi:nodetypes="cc"
         inkscape:connector-curvature="0"
         inkscape:connector-type="polyline"
         id="path4195-2-8-6"
         d="m 575,802.36218 45,0"
         style="fill:none;stroke:#000000;stroke-width:1px;stroke-linecap:butt;stroke-linejoin:miter;stroke-opacity:1;marker-start:url(#DiamondM);marker-mid:none;marker-end:url(#EmptyDiamondMend)" />
      <path
         sodipodi:nodetypes="cc"
         inkscape:connector-curvature="0"
         inkscape:connector-type="polyline"
         id="path4195-2-8-0"
         d="m 625,962.36218 45,0"
         style="fill:none;stroke:#000000;stroke-width:1px;stroke-linecap:butt;stroke-linejoin:miter;stroke-opacity:1;marker-start:url(#DiamondM);marker-mid:none;marker-end:url(#EmptyDiamondMend)" />
      <path
         sodipodi:nodetypes="cc"
         inkscape:connector-curvature="0"
         inkscape:connector-type="polyline"
         id="path4195-2-8-5"
         d="m 665,672.36218 45,0"
         style="fill:none;stroke:#000000;stroke-width:1px;stroke-linecap:butt;stroke-linejoin:miter;stroke-opacity:1;marker-start:url(#DiamondM);marker-mid:none;marker-end:url(#EmptyDiamondMend)" />
      <text
         sodipodi:linespacing="125%"
         id="text6335"
         y="1069.3622"
         x="-2"
         style="font-size:10px;font-style:normal;font-weight:normal;line-height:125%;letter-spacing:0px;word-spacing:0px;fill:#000000;fill-opacity:1;stroke:none;font-family:Sans"
         xml:space="preserve"><tspan
           y="1069.3622"
           x="-2"
           id="tspan6337"
           sodipodi:role="line">0</tspan></text>
      <text
         sodipodi:linespacing="125%"
         id="text6335-0"
         y="1069.3622"
         x="98"
         style="font-size:10px;font-style:normal;font-weight:normal;text-align:start;line-height:125%;letter-spacing:0px;word-spacing:0px;writing-mode:lr-tb;text-anchor:start;fill:#000000;fill-opacity:1;stroke:none;font-family:Sans"
         xml:space="preserve"><tspan
           id="tspan6429"
           sodipodi:role="line"
           x="98"
           y="1069.3622">10</tspan></text>
      <text
         sodipodi:linespacing="125%"
         id="text6335-1"
         y="1069.3622"
         x="196"
         style="font-size:10px;font-style:normal;font-weight:normal;text-align:start;line-height:125%;letter-spacing:0px;word-spacing:0px;writing-mode:lr-tb;text-anchor:start;fill:#000000;fill-opacity:1;stroke:none;font-family:Sans"
         xml:space="preserve"><tspan
           id="tspan6431"
           sodipodi:role="line"
           x="196"
           y="1069.3622">20</tspan></text>
      <text
         sodipodi:linespacing="125%"
         id="text6335-2"
         y="1069.3622"
         x="296"
         style="font-size:10px;font-style:normal;font-weight:normal;text-align:start;line-height:125%;letter-spacing:0px;word-spacing:0px;writing-mode:lr-tb;text-anchor:start;fill:#000000;fill-opacity:1;stroke:none;font-family:Sans"
         xml:space="preserve"><tspan
           id="tspan6435"
           sodipodi:role="line"
           x="296"
           y="1069.3622">30</tspan></text>
      <text
         sodipodi:linespacing="125%"
         id="text6335-4"
         y="1069.3622"
         x="396"
         style="font-size:10px;font-style:normal;font-weight:normal;text-align:start;line-height:125%;letter-spacing:0px;word-spacing:0px;writing-mode:lr-tb;text-anchor:start;fill:#000000;fill-opacity:1;stroke:none;font-family:Sans"
         xml:space="preserve"><tspan
           id="tspan6437"
           sodipodi:role="line"
           x="396"
           y="1069.3622">40</tspan></text>
      <text
         sodipodi:linespacing="125%"
         id="text6335-3"
         y="1069.3622"
         x="498"
         style="font-size:10px;font-style:normal;font-weight:normal;text-align:start;line-height:125%;letter-spacing:0px;word-spacing:0px;writing-mode:lr-tb;text-anchor:start;fill:#000000;fill-opacity:1;stroke:none;font-family:Sans"
         xml:space="preserve"><tspan
           id="tspan6433"
           sodipodi:role="line"
           x="498"
           y="1069.3622">50</tspan></text>
      <text
         sodipodi:linespacing="125%"
         id="text6335-8"
         y="1069.3622"
         x="598"
         style="font-size:10px;font-style:normal;font-weight:normal;text-align:start;line-height:125%;letter-spacing:0px;word-spacing:0px;writing-mode:lr-tb;text-anchor:start;fill:#000000;fill-opacity:1;stroke:none;font-family:Sans"
         xml:space="preserve"><tspan
           id="tspan6439"
           sodipodi:role="line"
           x="598"
           y="1069.3622">60</tspan></text>
      <text
         sodipodi:linespacing="125%"
         id="text6335-82"
         y="1069.3622"
         x="676"
         style="font-size:10px;font-style:normal;font-weight:normal;text-align:start;line-height:125%;letter-spacing:0px;word-spacing:0px;writing-mode:lr-tb;text-anchor:start;fill:#000000;fill-opacity:1;stroke:none;font-family:Sans"
         xml:space="preserve"><tspan
           id="tspan6441"
           sodipodi:role="line"
           x="676"
           y="1069.3622">70</tspan></text>
      <text
         sodipodi:linespacing="125%"
         id="text6335-0-4"
         y="951.36218"
         x="-18"
         style="font-size:10px;font-style:normal;font-weight:normal;text-align:start;line-height:125%;letter-spacing:0px;word-spacing:0px;writing-mode:lr-tb;text-anchor:start;fill:#000000;fill-opacity:1;stroke:none;font-family:Sans"
         xml:space="preserve"><tspan
           id="tspan6429-7"
           sodipodi:role="line"
           x="-18"
           y="951.36218">10</tspan></text>
      <text
         sodipodi:linespacing="125%"
         id="text6335-0-4-8"
         y="846.00232"
         x="-17.582031"
         style="font-size:10px;font-style:normal;font-weight:normal;text-align:start;line-height:125%;letter-spacing:0px;word-spacing:0px;writing-mode:lr-tb;text-anchor:start;fill:#000000;fill-opacity:1;stroke:none;font-family:Sans"
         xml:space="preserve"><tspan
           id="tspan6519"
           sodipodi:role="line"
           x="-17.582031"
           y="846.00232">20</tspan></text>
      <text
         sodipodi:linespacing="125%"
         id="text6335-0-4-5"
         y="746.00232"
         x="-17.582031"
         style="font-size:10px;font-style:normal;font-weight:normal;text-align:start;line-height:125%;letter-spacing:0px;word-spacing:0px;writing-mode:lr-tb;text-anchor:start;fill:#000000;fill-opacity:1;stroke:none;font-family:Sans"
         xml:space="preserve"><tspan
           id="tspan6521"
           sodipodi:role="line"
           x="-17.582031"
           y="746.00232">30</tspan></text>
      <text
         sodipodi:linespacing="125%"
         id="text6335-0-4-0"
         y="638.00232"
         x="-17.582031"
         style="font-size:10px;font-style:normal;font-weight:normal;text-align:start;line-height:125%;letter-spacing:0px;word-spacing:0px;writing-mode:lr-tb;text-anchor:start;fill:#000000;fill-opacity:1;stroke:none;font-family:Sans"
         xml:space="preserve"><tspan
           id="tspan6523"
           sodipodi:role="line"
           x="-17.582031"
           y="638.00232">40</tspan></text>
      <text
         sodipodi:linespacing="125%"
         id="text6525"
         y="1099.3622"
         x="366"
         style="font-size:18px;font-style:normal;font-variant:normal;font-weight:normal;font-stretch:normal;text-align:start;line-height:125%;letter-spacing:0px;word-spacing:0px;writing-mode:lr-tb;text-anchor:start;fill:#000000;fill-opacity:1;stroke:none;font-family:Sans;-inkscape-font-specification:Sans"
         xml:space="preserve"><tspan
           y="1099.3622"
           x="366"
           id="tspan6527"
           sodipodi:role="line">time</tspan></text>
      <text
         transform="matrix(0,-1,1,0,0,0)"
         sodipodi:linespacing="125%"
         id="text6525-0"
         y="-30.107918"
         x="-844.64435"
         style="font-size:18px;font-style:normal;font-variant:normal;font-weight:normal;font-stretch:normal;text-align:start;line-height:125%;letter-spacing:0px;word-spacing:0px;writing-mode:lr-tb;text-anchor:start;fill:#000000;fill-opacity:1;stroke:none;font-family:Sans;-inkscape-font-specification:Sans"
         xml:space="preserve"><tspan
           y="-30.107918"
           x="-844.64435"
           id="tspan6550"
           sodipodi:role="line">state value</tspan></text>
    </g>
  </g>
</svg>
