<?xml version="1.0" encoding="UTF-8" standalone="no"?>
<!DOCTYPE svg PUBLIC "-//W3C//DTD SVG 1.1//EN"
 "http://www.w3.org/Graphics/SVG/1.1/DTD/svg11.dtd">
<!-- Generated by graphviz version 2.38.0 (20140413.2041)
 -->
<!-- Title: Pond Pages: 1 -->
<svg width="329pt" height="318pt"
 viewBox="0.00 0.00 328.85 317.71" xmlns="http://www.w3.org/2000/svg" xmlns:xlink="http://www.w3.org/1999/xlink">
<g id="graph0" class="graph" transform="scale(1 1) rotate(0) translate(4 313.71)">
<title>Pond</title>
<polygon fill="white" stroke="none" points="-4,4 -4,-313.71 324.848,-313.71 324.848,4 -4,4"/>
<!-- 1 -->
<g id="node1" class="node"><title>1</title>
<ellipse fill="green" stroke="black" cx="240.995" cy="-45.1058" rx="27" ry="18"/>
<text text-anchor="middle" x="240.995" y="-41.4058" font-family="Times,serif" font-size="14.00">1</text>
</g>
<!-- 2 -->
<g id="node2" class="node"><title>2</title>
<ellipse fill="green" stroke="black" cx="293.848" cy="-154.855" rx="27" ry="18"/>
<text text-anchor="middle" x="293.848" y="-151.155" font-family="Times,serif" font-size="14.00">2</text>
</g>
<!-- 1&#45;&#45;2 -->
<g id="edge1" class="edge"><title>1&#45;&#45;2</title>
<path fill="none" stroke="black" d="M249.254,-62.2542C259.125,-82.7518 275.551,-116.861 285.473,-137.465"/>
</g>
<!-- 3 -->
<g id="node3" class="node"><title>3</title>
<ellipse fill="green" stroke="black" cx="27" cy="-93.9489" rx="27" ry="18"/>
<text text-anchor="middle" x="27" y="-90.2489" font-family="Times,serif" font-size="14.00">3</text>
</g>
<!-- 1&#45;&#45;3 -->
<g id="edge7" class="edge"><title>1&#45;&#45;3</title>
<path fill="none" stroke="black" d="M215.183,-50.9975C173.94,-60.4107 93.6603,-78.7341 52.5713,-88.1124"/>
</g>
<!-- 4 -->
<g id="node4" class="node"><title>4</title>
<ellipse fill="green" stroke="black" cx="27" cy="-215.761" rx="27" ry="18"/>
<text text-anchor="middle" x="27" y="-212.061" font-family="Times,serif" font-size="14.00">4</text>
</g>
<!-- 1&#45;&#45;4 -->
<g id="edge8" class="edge"><title>1&#45;&#45;4</title>
<path fill="none" stroke="black" d="M223.483,-59.0713C183.255,-91.152 84.6255,-169.807 44.454,-201.842"/>
</g>
<!-- 5 -->
<g id="node5" class="node"><title>5</title>
<ellipse fill="green" stroke="black" cx="122.237" cy="-291.71" rx="27" ry="18"/>
<text text-anchor="middle" x="122.237" y="-288.01" font-family="Times,serif" font-size="14.00">5</text>
</g>
<!-- 1&#45;&#45;5 -->
<g id="edge9" class="edge"><title>1&#45;&#45;5</title>
<path fill="none" stroke="black" d="M232.645,-62.4466C210.839,-107.725 152.373,-229.132 130.579,-274.389"/>
</g>
<!-- 6 -->
<g id="node6" class="node"><title>6</title>
<ellipse fill="green" stroke="black" cx="240.995" cy="-264.605" rx="27" ry="18"/>
<text text-anchor="middle" x="240.995" y="-260.905" font-family="Times,serif" font-size="14.00">6</text>
</g>
<!-- 1&#45;&#45;6 -->
<g id="edge10" class="edge"><title>1&#45;&#45;6</title>
<path fill="none" stroke="black" d="M240.995,-63.4426C240.995,-104.863 240.995,-205.251 240.995,-246.474"/>
</g>
<!-- 7 -->
<g id="node7" class="node"><title>7</title>
<ellipse fill="green" stroke="black" cx="122.237" cy="-18" rx="27" ry="18"/>
<text text-anchor="middle" x="122.237" y="-14.3" font-family="Times,serif" font-size="14.00">7</text>
</g>
<!-- 1&#45;&#45;7 -->
<g id="edge11" class="edge"><title>1&#45;&#45;7</title>
<path fill="none" stroke="black" d="M215.227,-39.2243C195.307,-34.6777 167.863,-28.4138 147.955,-23.8701"/>
</g>
<!-- 2&#45;&#45;3 -->
<g id="edge2" class="edge"><title>2&#45;&#45;3</title>
<path fill="none" stroke="black" d="M268.261,-149.015C217.386,-137.403 104.033,-111.531 52.9011,-99.8607"/>
</g>
<!-- 2&#45;&#45;4 -->
<g id="edge12" class="edge"><title>2&#45;&#45;4</title>
<path fill="none" stroke="black" d="M268.261,-160.695C217.386,-172.307 104.033,-198.179 52.9011,-209.85"/>
</g>
<!-- 2&#45;&#45;5 -->
<g id="edge13" class="edge"><title>2&#45;&#45;5</title>
<path fill="none" stroke="black" d="M276.448,-168.731C243.557,-194.961 172.61,-251.539 139.682,-277.798"/>
</g>
<!-- 2&#45;&#45;6 -->
<g id="edge14" class="edge"><title>2&#45;&#45;6</title>
<path fill="none" stroke="black" d="M285.59,-172.004C275.719,-192.501 259.292,-226.61 249.37,-247.214"/>
</g>
<!-- 2&#45;&#45;7 -->
<g id="edge15" class="edge"><title>2&#45;&#45;7</title>
<path fill="none" stroke="black" d="M276.448,-140.98C243.557,-114.749 172.61,-58.1709 139.682,-31.9123"/>
</g>
<!-- 3&#45;&#45;4 -->
<g id="edge3" class="edge"><title>3&#45;&#45;4</title>
<path fill="none" stroke="black" d="M27,-112.185C27,-135.15 27,-174.377 27,-197.4"/>
</g>
<!-- 3&#45;&#45;5 -->
<g id="edge16" class="edge"><title>3&#45;&#45;5</title>
<path fill="none" stroke="black" d="M35.285,-111.153C53.2965,-148.554 95.8476,-236.912 113.903,-274.405"/>
</g>
<!-- 3&#45;&#45;6 -->
<g id="edge17" class="edge"><title>3&#45;&#45;6</title>
<path fill="none" stroke="black" d="M44.5121,-107.914C84.74,-139.995 183.37,-218.65 223.541,-250.685"/>
</g>
<!-- 3&#45;&#45;7 -->
<g id="edge18" class="edge"><title>3&#45;&#45;7</title>
<path fill="none" stroke="black" d="M44.4679,-80.0187C61.6517,-66.3151 87.7343,-45.5149 104.88,-31.8419"/>
</g>
<!-- 4&#45;&#45;5 -->
<g id="edge4" class="edge"><title>4&#45;&#45;5</title>
<path fill="none" stroke="black" d="M44.4679,-229.692C61.6517,-243.395 87.7343,-264.195 104.88,-277.868"/>
</g>
<!-- 4&#45;&#45;6 -->
<g id="edge19" class="edge"><title>4&#45;&#45;6</title>
<path fill="none" stroke="black" d="M52.8128,-221.653C94.0549,-231.066 174.335,-249.39 215.424,-258.768"/>
</g>
<!-- 4&#45;&#45;7 -->
<g id="edge20" class="edge"><title>4&#45;&#45;7</title>
<path fill="none" stroke="black" d="M35.285,-198.557C53.2965,-161.156 95.8476,-72.7979 113.903,-35.3051"/>
</g>
<!-- 5&#45;&#45;6 -->
<g id="edge5" class="edge"><title>5&#45;&#45;6</title>
<path fill="none" stroke="black" d="M148.006,-285.829C167.925,-281.282 195.37,-275.018 215.277,-270.475"/>
</g>
<!-- 5&#45;&#45;7 -->
<g id="edge21" class="edge"><title>5&#45;&#45;7</title>
<path fill="none" stroke="black" d="M122.237,-273.326C122.237,-223.464 122.237,-86.0726 122.237,-36.3039"/>
</g>
<!-- 6&#45;&#45;7 -->
<g id="edge6" class="edge"><title>6&#45;&#45;7</title>
<path fill="none" stroke="black" d="M232.645,-247.264C210.839,-201.985 152.373,-80.5788 130.579,-35.3216"/>
</g>
</g>
</svg>
